<svg xmlns="http://www.w3.org/2000/svg" viewBox="0 0 880 506" width="880" height="506" role="img" aria-label="AF-Oprea public work pulse">
<title>AF-Oprea — public pulse</title>
<rect width="880" height="506" rx="24" fill="#07080b"/>
<rect x="1.2" y="1.2" width="877.6" height="503.6" rx="22.8" fill="none" stroke="rgba(232,228,214,0.12)"/>
<circle cx="42" cy="44" r="7" fill="#3fb950"/>
<text x="58" y="36" fill="#9a9aa8" font-size="11" font-family="ui-sans-serif, system-ui, sans-serif" letter-spacing="2.4">AF-OPREA</text>
<text x="58" y="60" fill="#f4f1ea" font-size="20" font-family="ui-serif, Georgia, serif">Private streams... Public pulse.</text>
<g transform="translate(790,16)">
<circle cx="36" cy="36" r="26" fill="none" stroke="rgba(255,255,255,0.08)" stroke-width="7"/>
<circle cx="36" cy="36" r="26" fill="none" stroke="#e4c078" stroke-width="7" stroke-linecap="round" stroke-dasharray="163.36" stroke-dashoffset="60.61" transform="rotate(-90 36 36)"/>
<text x="36" y="33" text-anchor="middle" fill="#f4f1ea" font-size="13" font-family="ui-monospace, monospace">62.9%</text>
<text x="36" y="48" text-anchor="middle" fill="#9a9aa8" font-size="8" font-family="ui-sans-serif, system-ui, sans-serif" letter-spacing="1.2">OVERALL</text>
</g>
<rect x="24" y="92" width="832" height="48" rx="10" fill="#101218" stroke="rgba(232,228,214,0.08)"/>
<circle cx="44" cy="116" r="4" fill="#3fb950"/>
<text x="58" y="112" fill="#f4f1ea" font-size="14" font-family="ui-monospace, SFMono-Regular, monospace">runguard</text>
<text x="58" y="130" fill="#9a9aa8" font-size="11" font-family="ui-sans-serif, system-ui, sans-serif">RMM V1 — agents, inventory, patch, heal, mesh</text>
<text x="430" y="120" fill="#f4f1ea" font-size="14" font-family="ui-monospace, SFMono-Regular, monospace">71.7%</text>
<rect x="500" y="112" width="360" height="8" rx="4" fill="rgba(255,255,255,0.07)"/>
<rect x="500" y="112" width="258" height="8" rx="4" fill="#3fb950"/>
<rect x="24" y="146" width="832" height="48" rx="10" fill="#101218" stroke="rgba(232,228,214,0.08)"/>
<circle cx="44" cy="170" r="4" fill="#58a6ff"/>
<text x="58" y="166" fill="#f4f1ea" font-size="14" font-family="ui-monospace, SFMono-Regular, monospace">stellami</text>
<text x="58" y="184" fill="#9a9aa8" font-size="11" font-family="ui-sans-serif, system-ui, sans-serif">Tarot kit + app; store path when accounts exist</text>
<text x="430" y="174" fill="#f4f1ea" font-size="14" font-family="ui-monospace, SFMono-Regular, monospace">50.0%</text>
<rect x="500" y="166" width="360" height="8" rx="4" fill="rgba(255,255,255,0.07)"/>
<rect x="500" y="166" width="180" height="8" rx="4" fill="#58a6ff"/>
<rect x="24" y="200" width="832" height="48" rx="10" fill="#101218" stroke="rgba(232,228,214,0.08)"/>
<circle cx="44" cy="224" r="4" fill="#ffa657"/>
<text x="58" y="220" fill="#f4f1ea" font-size="14" font-family="ui-monospace, SFMono-Regular, monospace">esp-lab-jack</text>
<text x="58" y="238" fill="#9a9aa8" font-size="11" font-family="ui-sans-serif, system-ui, sans-serif">ESP firmware and hardware lab</text>
<text x="430" y="228" fill="#f4f1ea" font-size="14" font-family="ui-monospace, SFMono-Regular, monospace">66.0%</text>
<rect x="500" y="220" width="360" height="8" rx="4" fill="rgba(255,255,255,0.07)"/>
<rect x="500" y="220" width="238" height="8" rx="4" fill="#ffa657"/>
<rect x="24" y="254" width="832" height="48" rx="10" fill="#101218" stroke="rgba(232,228,214,0.08)"/>
<circle cx="44" cy="278" r="4" fill="#f778ba"/>
<text x="58" y="274" fill="#f4f1ea" font-size="14" font-family="ui-monospace, SFMono-Regular, monospace">stellami-marketing</text>
<text x="58" y="292" fill="#9a9aa8" font-size="11" font-family="ui-sans-serif, system-ui, sans-serif">Launch content and ASO for stellami</text>
<text x="430" y="282" fill="#f4f1ea" font-size="14" font-family="ui-monospace, SFMono-Regular, monospace">50.0%</text>
<rect x="500" y="274" width="360" height="8" rx="4" fill="rgba(255,255,255,0.07)"/>
<rect x="500" y="274" width="180" height="8" rx="4" fill="#f778ba"/>
<rect x="24" y="308" width="832" height="48" rx="10" fill="#101218" stroke="rgba(232,228,214,0.08)"/>
<circle cx="44" cy="332" r="4" fill="#79c0ff"/>
<text x="58" y="328" fill="#f4f1ea" font-size="14" font-family="ui-monospace, SFMono-Regular, monospace">PeriFX</text>
<text x="58" y="346" fill="#9a9aa8" font-size="11" font-family="ui-sans-serif, system-ui, sans-serif">EMA + SMC trading lab (demo)</text>
<text x="430" y="336" fill="#f4f1ea" font-size="14" font-family="ui-monospace, SFMono-Regular, monospace">54.2%</text>
<rect x="500" y="328" width="360" height="8" rx="4" fill="rgba(255,255,255,0.07)"/>
<rect x="500" y="328" width="195" height="8" rx="4" fill="#79c0ff"/>
<rect x="24" y="362" width="832" height="48" rx="10" fill="#101218" stroke="rgba(232,228,214,0.08)"/>
<circle cx="44" cy="386" r="4" fill="#7ee787"/>
<text x="58" y="382" fill="#f4f1ea" font-size="14" font-family="ui-monospace, SFMono-Regular, monospace">EASM</text>
<text x="58" y="400" fill="#9a9aa8" font-size="11" font-family="ui-sans-serif, system-ui, sans-serif">Security audit tool for own lab</text>
<text x="430" y="390" fill="#f4f1ea" font-size="14" font-family="ui-monospace, SFMono-Regular, monospace">65.4%</text>
<rect x="500" y="382" width="360" height="8" rx="4" fill="rgba(255,255,255,0.07)"/>
<rect x="500" y="382" width="235" height="8" rx="4" fill="#7ee787"/>
<rect x="24" y="416" width="832" height="48" rx="10" fill="#101218" stroke="rgba(232,228,214,0.08)"/>
<circle cx="44" cy="440" r="4" fill="#ff7b72"/>
<text x="58" y="436" fill="#f4f1ea" font-size="14" font-family="ui-monospace, SFMono-Regular, monospace">WASH</text>
<text x="58" y="454" fill="#9a9aa8" font-size="11" font-family="ui-sans-serif, system-ui, sans-serif">Wash windows — car/moto, no rain</text>
<text x="430" y="444" fill="#f4f1ea" font-size="14" font-family="ui-monospace, SFMono-Regular, monospace">83.3%</text>
<rect x="500" y="436" width="360" height="8" rx="4" fill="rgba(255,255,255,0.07)"/>
<rect x="500" y="436" width="300" height="8" rx="4" fill="#ff7b72"/>
<text x="28" y="494" fill="#6f7380" font-size="9" font-family="ui-sans-serif, system-ui, sans-serif">2026-08-26T00:12:35Z · sorted complexity → LOC → stage</text>
</svg>
