<svg xmlns="http://www.w3.org/2000/svg" viewBox="0 0 880 480" width="880" height="480" role="img" aria-label="Source code LOC deltas — 30 minutes, 24 hours, and 7 days">
<title>Code written · recent Δ</title>
<rect width="880" height="480" rx="16" fill="#07080b"/>
<text x="24" y="34" fill="#f4f1ea" font-size="16" font-family="ui-serif, Georgia, serif">Code written · recent</text>
<text x="24" y="52" fill="#9a9aa8" font-size="10" font-family="ui-sans-serif, system-ui, sans-serif">Non-blank source LOC in local clones · Δ 30m · Δ 24h · Δ 7d = % change vs prior window (git backfill when history fresh)</text>
<rect x="24" y="76" width="158" height="56" rx="12" fill="#101218" stroke="rgba(232,228,214,0.10)"/>
<text x="38" y="98" fill="#9a9aa8" font-size="11" font-family="ui-sans-serif, system-ui, sans-serif" letter-spacing="1.2">Δ 30m</text>
<text x="38" y="122" fill="#3fb950" font-size="20" font-family="ui-monospace, SFMono-Regular, monospace">+0.2%</text>
<rect x="192" y="76" width="158" height="56" rx="12" fill="#101218" stroke="rgba(232,228,214,0.10)"/>
<text x="206" y="98" fill="#9a9aa8" font-size="11" font-family="ui-sans-serif, system-ui, sans-serif" letter-spacing="1.2">Δ 24h</text>
<text x="206" y="122" fill="#3fb950" font-size="20" font-family="ui-monospace, SFMono-Regular, monospace">+5.7%</text>
<rect x="360" y="76" width="158" height="56" rx="12" fill="#101218" stroke="rgba(232,228,214,0.10)"/>
<text x="374" y="98" fill="#9a9aa8" font-size="11" font-family="ui-sans-serif, system-ui, sans-serif" letter-spacing="1.2">Δ 7d</text>
<text x="374" y="122" fill="#3fb950" font-size="20" font-family="ui-monospace, SFMono-Regular, monospace">+428.1%</text>
<rect x="528" y="76" width="328" height="56" rx="12" fill="#101218" stroke="rgba(232,228,214,0.10)"/>
<text x="542" y="98" fill="#9a9aa8" font-size="11" font-family="ui-sans-serif, system-ui, sans-serif" letter-spacing="1.2">TOTAL LOC NOW</text>
<text x="542" y="122" fill="#f4f1ea" font-size="20" font-family="ui-monospace, SFMono-Regular, monospace">301k</text>
<text x="60" y="152" fill="#6f7380" font-size="9" font-family="ui-sans-serif, system-ui, sans-serif">STREAM</text>
<text x="280" y="152" fill="#6f7380" font-size="9" font-family="ui-sans-serif, system-ui, sans-serif">LOC</text>
<text x="380" y="152" fill="#6f7380" font-size="9" font-family="ui-sans-serif, system-ui, sans-serif">Δ 30m</text>
<text x="520" y="152" fill="#6f7380" font-size="9" font-family="ui-sans-serif, system-ui, sans-serif">Δ 24h</text>
<text x="660" y="152" fill="#6f7380" font-size="9" font-family="ui-sans-serif, system-ui, sans-serif">Δ 7d</text>
<rect x="24" y="162" width="832" height="30" rx="8" fill="#101218" stroke="rgba(232,228,214,0.06)"/>
<g id="stream_logo_stellami" class="stream_logo" data-stream="stellami" transform="translate(34.0,168.0) scale(0.9000)" opacity="1.0"><!-- Star - purple field + gold accent (from Stellami brand logo-curent) -->
  <defs>
    <linearGradient id="stream_logo_stellami-stellami-gold" x1="0%" y1="0%" x2="100%" y2="100%">
      <stop offset="0%" stop-color="#f5e6a8"/>
      <stop offset="55%" stop-color="#e8c57a"/>
      <stop offset="100%" stop-color="#c9a227"/>
    </linearGradient>
  </defs>
  <circle cx="10" cy="10" r="9" fill="#7c3aed"/>
  <circle cx="10" cy="10" r="7.2" fill="none" stroke="url(#stream_logo_stellami-stellami-gold)" stroke-width="0.7" opacity=".7"/>
  <path fill="url(#stream_logo_stellami-stellami-gold)" d="M10 3.2 L11.35 8.05 L16.4 9.1 L11.35 10.15 L10 15 L8.65 10.15 L3.6 9.1 L8.65 8.05 Z"/>
  <circle cx="10" cy="10" r="1.15" fill="#fff8e8"/></g><use class="stream_logo" data-stream="stellami" href="#stream_logo_stellami" x="34.0" y="168.0" width="18" height="18" opacity="0"/>
<text x="60" y="182" fill="#f4f1ea" font-size="13" font-family="ui-monospace, SFMono-Regular, monospace">stellami</text>
<text x="280" y="182" fill="#f4f1ea" font-size="13" font-family="ui-monospace, SFMono-Regular, monospace">165k</text>
<text x="380" y="182" fill="#9a9aa8" font-size="13" font-family="ui-monospace, SFMono-Regular, monospace">+0.0%</text>
<text x="520" y="182" fill="#9a9aa8" font-size="13" font-family="ui-monospace, SFMono-Regular, monospace">+0.0%</text>
<text x="660" y="182" fill="#6f7380" font-size="13" font-family="ui-monospace, SFMono-Regular, monospace">—</text>
<rect x="24" y="198" width="832" height="30" rx="8" fill="#101218" stroke="rgba(232,228,214,0.06)"/>
<g id="stream_logo_runguard" class="stream_logo" data-stream="runguard" transform="translate(34.0,204.0) scale(0.9000)" opacity="1.0"><!-- Shield mark - green (derived from RunGuard PWA icon hue) -->
  <path fill="#3fb950" d="M10 1.5 L16.5 4.2 V9.8 C16.5 14.1 13.6 17.4 10 18.5 C6.4 17.4 3.5 14.1 3.5 9.8 V4.2 Z"/>
  <path fill="#0d1117" fill-opacity=".35" d="M10 3.2 L14.8 5.1 V9.7 C14.8 12.9 12.6 15.4 10 16.4 C7.4 15.4 5.2 12.9 5.2 9.7 V5.1 Z"/>
  <path fill="#f4f1ea" d="M7.2 7.1h3.1c1.35 0 2.2.7 2.2 1.75 0 .85-.5 1.45-1.35 1.65L12.6 13h-1.85l-1.2-2.35H8.7V13H7.2V7.1zm1.5 1.2v1.55h1.35c.55 0 .9-.28.9-.75s-.35-.8-.9-.8H8.7z"/></g><use class="stream_logo" data-stream="runguard" href="#stream_logo_runguard" x="34.0" y="204.0" width="18" height="18" opacity="0"/>
<text x="60" y="218" fill="#f4f1ea" font-size="13" font-family="ui-monospace, SFMono-Regular, monospace">runguard</text>
<text x="280" y="218" fill="#f4f1ea" font-size="13" font-family="ui-monospace, SFMono-Regular, monospace">101k</text>
<text x="380" y="218" fill="#9a9aa8" font-size="13" font-family="ui-monospace, SFMono-Regular, monospace">+0.0%</text>
<text x="520" y="218" fill="#3fb950" font-size="13" font-family="ui-monospace, SFMono-Regular, monospace">+1.8%</text>
<text x="660" y="218" fill="#3fb950" font-size="13" font-family="ui-monospace, SFMono-Regular, monospace">+78.7%</text>
<rect x="24" y="234" width="832" height="30" rx="8" fill="#101218" stroke="rgba(232,228,214,0.06)"/>
<g id="stream_logo_mf2fv" class="stream_logo" data-stream="mf2fv" transform="translate(34.0,240.0) scale(0.9000)" opacity="1.0"><!-- MF2FV mark - crimson -->
  <rect width="20" height="20" rx="4" fill="#2a0a0a"/>
  <ellipse cx="10" cy="13.5" rx="5.5" ry="3.2" fill="#ef4444" opacity=".35"/>
  <path fill="#ef4444" d="M4.5 9.5 C4.5 7.2 6.8 5.5 10 5.5 S15.5 7.2 15.5 9.5 L16.2 10.2 H3.8 Z"/>
  <rect x="6.5" y="10" width="7" height="1.2" rx="0.4" fill="#fca5a5"/>
  <path fill="#1a0505" d="M7.5 11.2 h5 v2.8 c0 1-1.1 1.8-2.5 1.8 s-2.5-.8-2.5-1.8 v-2.8z"/>
  <circle cx="8.3" cy="13" r="0.55" fill="#fca5a5"/>
  <circle cx="11.7" cy="13" r="0.55" fill="#fca5a5"/></g><use class="stream_logo" data-stream="mf2fv" href="#stream_logo_mf2fv" x="34.0" y="240.0" width="18" height="18" opacity="0"/>
<text x="60" y="254" fill="#f4f1ea" font-size="13" font-family="ui-monospace, SFMono-Regular, monospace">mf2fv</text>
<text x="280" y="254" fill="#f4f1ea" font-size="13" font-family="ui-monospace, SFMono-Regular, monospace">14.3k</text>
<text x="380" y="254" fill="#3fb950" font-size="13" font-family="ui-monospace, SFMono-Regular, monospace">+4.9%</text>
<text x="520" y="254" fill="#6f7380" font-size="13" font-family="ui-monospace, SFMono-Regular, monospace">—</text>
<text x="660" y="254" fill="#6f7380" font-size="13" font-family="ui-monospace, SFMono-Regular, monospace">—</text>
<rect x="24" y="270" width="832" height="30" rx="8" fill="#101218" stroke="rgba(232,228,214,0.06)"/>
<g id="stream_logo_stellami-marketing" class="stream_logo" data-stream="stellami-marketing" transform="translate(34.0,276.0) scale(0.9000)" opacity="1.0"><!-- Rose megaphone + small gold spark - marketing sibling of Stellami -->
  <defs>
    <linearGradient id="stream_logo_stellami-marketing-smkt-gold" x1="0%" y1="0%" x2="100%" y2="100%">
      <stop offset="0%" stop-color="#f5e6a8"/>
      <stop offset="100%" stop-color="#c9a227"/>
    </linearGradient>
  </defs>
  <rect width="20" height="20" rx="4" fill="#831843"/>
  <path fill="#f778ba" d="M4.2 8.2h3.2l5.2-2.6v9.2l-5.2-2.6H4.2z"/>
  <path fill="#fda4d0" d="M12.6 6.2l2.6-1.4v10.8l-2.6-1.4z"/>
  <path fill="url(#stream_logo_stellami-marketing-smkt-gold)" d="M15.2 3.4 L15.7 4.7 L17 5.2 L15.7 5.7 L15.2 7 L14.7 5.7 L13.4 5.2 L14.7 4.7 Z"/></g><use class="stream_logo" data-stream="stellami-marketing" href="#stream_logo_stellami-marketing" x="34.0" y="276.0" width="18" height="18" opacity="0"/>
<text x="60" y="290" fill="#f4f1ea" font-size="13" font-family="ui-monospace, SFMono-Regular, monospace">stellami-marketing</text>
<text x="280" y="290" fill="#f4f1ea" font-size="13" font-family="ui-monospace, SFMono-Regular, monospace">7k</text>
<text x="380" y="290" fill="#9a9aa8" font-size="13" font-family="ui-monospace, SFMono-Regular, monospace">+0.0%</text>
<text x="520" y="290" fill="#9a9aa8" font-size="13" font-family="ui-monospace, SFMono-Regular, monospace">+0.0%</text>
<text x="660" y="290" fill="#6f7380" font-size="13" font-family="ui-monospace, SFMono-Regular, monospace">—</text>
<rect x="24" y="306" width="832" height="30" rx="8" fill="#101218" stroke="rgba(232,228,214,0.06)"/>
<g id="stream_logo_easm" class="stream_logo" data-stream="easm" transform="translate(34.0,312.0) scale(0.9000)" opacity="1.0"><!-- Radar / scan eye - cyan -->
  <rect width="20" height="20" rx="4" fill="#083344"/>
  <circle cx="10" cy="10" r="6.5" fill="none" stroke="#22d3ee" stroke-width="1.2"/>
  <circle cx="10" cy="10" r="4" fill="none" stroke="#67e8f9" stroke-width="1"/>
  <circle cx="10" cy="10" r="1.6" fill="#22d3ee"/>
  <path d="M10 2.8 V5.2 M10 14.8 V17.2 M2.8 10 H5.2 M14.8 10 H17.2" stroke="#a5f3fc" stroke-width="1.1" stroke-linecap="round"/></g><use class="stream_logo" data-stream="easm" href="#stream_logo_easm" x="34.0" y="312.0" width="18" height="18" opacity="0"/>
<text x="60" y="326" fill="#f4f1ea" font-size="13" font-family="ui-monospace, SFMono-Regular, monospace">easm</text>
<text x="280" y="326" fill="#f4f1ea" font-size="13" font-family="ui-monospace, SFMono-Regular, monospace">4k</text>
<text x="380" y="326" fill="#9a9aa8" font-size="13" font-family="ui-monospace, SFMono-Regular, monospace">+0.0%</text>
<text x="520" y="326" fill="#3fb950" font-size="13" font-family="ui-monospace, SFMono-Regular, monospace">+2.2%</text>
<text x="660" y="326" fill="#6f7380" font-size="13" font-family="ui-monospace, SFMono-Regular, monospace">—</text>
<rect x="24" y="342" width="832" height="30" rx="8" fill="#101218" stroke="rgba(232,228,214,0.06)"/>
<g id="stream_logo_peri" class="stream_logo" data-stream="peri" transform="translate(34.0,348.0) scale(0.9000)" opacity="1.0"><!-- Candlestick chart - amber (stable distinct hue) -->
  <rect width="20" height="20" rx="4" fill="#422006"/>
  <!-- wick + body down -->
  <rect x="4.2" y="4" width="1.2" height="11" rx="0.4" fill="#fcd34d"/>
  <rect x="3.2" y="7" width="3.2" height="5" rx="0.5" fill="#fbbf24"/>
  <!-- wick + body up -->
  <rect x="9.4" y="3.5" width="1.2" height="12" rx="0.4" fill="#fde68a"/>
  <rect x="8.4" y="6" width="3.2" height="6.5" rx="0.5" fill="#f59e0b"/>
  <!-- wick + body -->
  <rect x="14.6" y="5" width="1.2" height="10" rx="0.4" fill="#fcd34d"/>
  <rect x="13.6" y="8" width="3.2" height="4.5" rx="0.5" fill="#fbbf24"/></g><use class="stream_logo" data-stream="peri" href="#stream_logo_peri" x="34.0" y="348.0" width="18" height="18" opacity="0"/>
<text x="60" y="362" fill="#f4f1ea" font-size="13" font-family="ui-monospace, SFMono-Regular, monospace">peri</text>
<text x="280" y="362" fill="#f4f1ea" font-size="13" font-family="ui-monospace, SFMono-Regular, monospace">4k</text>
<text x="380" y="362" fill="#9a9aa8" font-size="13" font-family="ui-monospace, SFMono-Regular, monospace">+0.0%</text>
<text x="520" y="362" fill="#9a9aa8" font-size="13" font-family="ui-monospace, SFMono-Regular, monospace">+0.0%</text>
<text x="660" y="362" fill="#6f7380" font-size="13" font-family="ui-monospace, SFMono-Regular, monospace">—</text>
<rect x="24" y="378" width="832" height="30" rx="8" fill="#101218" stroke="rgba(232,228,214,0.06)"/>
<g id="stream_logo_esp-lab-jack" class="stream_logo" data-stream="esp-lab-jack" transform="translate(34.0,384.0) scale(0.9000)" opacity="1.0"><!-- MCU / chip mark - amber-orange -->
  <rect width="20" height="20" rx="4" fill="#3d2314"/>
  <rect x="5" y="5" width="10" height="10" rx="1.5" fill="#ffa657"/>
  <rect x="7" y="7" width="6" height="6" rx="0.8" fill="#1c1210"/>
  <!-- pins -->
  <rect x="2.2" y="7" width="2.2" height="1.2" rx="0.3" fill="#ffd4a8"/>
  <rect x="2.2" y="11.8" width="2.2" height="1.2" rx="0.3" fill="#ffd4a8"/>
  <rect x="15.6" y="7" width="2.2" height="1.2" rx="0.3" fill="#ffd4a8"/>
  <rect x="15.6" y="11.8" width="2.2" height="1.2" rx="0.3" fill="#ffd4a8"/>
  <rect x="7" y="2.2" width="1.2" height="2.2" rx="0.3" fill="#ffd4a8"/>
  <rect x="11.8" y="2.2" width="1.2" height="2.2" rx="0.3" fill="#ffd4a8"/>
  <rect x="7" y="15.6" width="1.2" height="2.2" rx="0.3" fill="#ffd4a8"/>
  <rect x="11.8" y="15.6" width="1.2" height="2.2" rx="0.3" fill="#ffd4a8"/></g><use class="stream_logo" data-stream="esp-lab-jack" href="#stream_logo_esp-lab-jack" x="34.0" y="384.0" width="18" height="18" opacity="0"/>
<text x="60" y="398" fill="#f4f1ea" font-size="13" font-family="ui-monospace, SFMono-Regular, monospace">esp-lab-jack</text>
<text x="280" y="398" fill="#f4f1ea" font-size="13" font-family="ui-monospace, SFMono-Regular, monospace">983</text>
<text x="380" y="398" fill="#9a9aa8" font-size="13" font-family="ui-monospace, SFMono-Regular, monospace">+0.0%</text>
<text x="520" y="398" fill="#9a9aa8" font-size="13" font-family="ui-monospace, SFMono-Regular, monospace">+0.0%</text>
<text x="660" y="398" fill="#6f7380" font-size="13" font-family="ui-monospace, SFMono-Regular, monospace">—</text>
<rect x="24" y="414" width="832" height="30" rx="8" fill="#101218" stroke="rgba(232,228,214,0.06)"/>
<g id="stream_logo_wash" class="stream_logo" data-stream="wash" transform="translate(34.0,420.0) scale(0.9000)" opacity="1.0"><!-- Water drop - salmon/red (keep wash identity) -->
  <rect width="20" height="20" rx="4" fill="#3f1513"/>
  <path fill="#ff7b72" d="M10 2.8 C10 2.8 15.2 9.2 15.2 12.4 A5.2 5.2 0 0 1 4.8 12.4 C4.8 9.2 10 2.8 10 2.8 Z"/>
  <ellipse cx="8.2" cy="11.2" rx="1.4" ry="2" fill="#ffd0cc" opacity=".55"/></g><use class="stream_logo" data-stream="wash" href="#stream_logo_wash" x="34.0" y="420.0" width="18" height="18" opacity="0"/>
<text x="60" y="434" fill="#f4f1ea" font-size="13" font-family="ui-monospace, SFMono-Regular, monospace">wash</text>
<text x="280" y="434" fill="#f4f1ea" font-size="13" font-family="ui-monospace, SFMono-Regular, monospace">913</text>
<text x="380" y="434" fill="#9a9aa8" font-size="13" font-family="ui-monospace, SFMono-Regular, monospace">+0.0%</text>
<text x="520" y="434" fill="#9a9aa8" font-size="13" font-family="ui-monospace, SFMono-Regular, monospace">+0.0%</text>
<text x="660" y="434" fill="#6f7380" font-size="13" font-family="ui-monospace, SFMono-Regular, monospace">—</text>
<text x="24" y="468" fill="#6f7380" font-size="9" font-family="ui-sans-serif, system-ui, sans-serif">Δ 24h may use git tree when snapshot history is fresh</text>
</svg>
