<svg xmlns="http://www.w3.org/2000/svg" viewBox="0 0 880 658" width="880" height="658" role="img" aria-label="Stream complexity utility languages">
<title>Streams</title>
<rect width="880" height="658" rx="24" fill="#07080b"/>
<rect x="1.2" y="1.2" width="877.6" height="655.6" rx="22.8" fill="none" stroke="rgba(232,228,214,0.12)"/>
<rect x="24" y="16" width="832" height="26" rx="8" fill="#151820"/>
<text x="60" y="33" fill="#9a9aa8" font-size="10" font-family="ui-sans-serif, system-ui, sans-serif" letter-spacing="1.1">STREAM</text>
<text x="260" y="33" fill="#9a9aa8" font-size="10" font-family="ui-sans-serif, system-ui, sans-serif" letter-spacing="1.1">CXP</text>
<text x="316" y="33" fill="#9a9aa8" font-size="10" font-family="ui-sans-serif, system-ui, sans-serif" letter-spacing="1.1">UTIL</text>
<text x="380" y="33" fill="#9a9aa8" font-size="10" font-family="ui-sans-serif, system-ui, sans-serif" letter-spacing="1.1">LOC</text>
<text x="452" y="33" fill="#9a9aa8" font-size="10" font-family="ui-sans-serif, system-ui, sans-serif" letter-spacing="1.1">INDEX</text>
<text x="508" y="33" fill="#9a9aa8" font-size="10" font-family="ui-sans-serif, system-ui, sans-serif" letter-spacing="1.1">LANGUAGES</text>
<rect x="24" y="46" width="832" height="36" rx="10" fill="#101218" stroke="rgba(232,228,214,0.08)"/>
<g id="stream_logo_runguard" class="stream_logo" data-stream="runguard" transform="translate(34.0,55.0) scale(0.9000)" opacity="1.0"><!-- Shield + check — teal RMM mark (vector; no nested raster) -->
  <rect width="20" height="20" rx="4" fill="#042f2e"/>
  <path fill="#2dd4bf" d="M10 2.6 L15.2 4.6 V9.2 C15.2 12.8 12.9 15.6 10 16.8 C7.1 15.6 4.8 12.8 4.8 9.2 V4.6 Z"/>
  <path fill="none" stroke="#042f2e" stroke-width="1.5" stroke-linecap="round" stroke-linejoin="round" d="M7.2 9.6 L9.1 11.5 L13 7.4"/></g><use class="stream_logo" data-stream="runguard" href="#stream_logo_runguard" x="34.0" y="55.0" width="18" height="18" opacity="0"/>
<text x="60" y="69" fill="#f4f1ea" font-size="13" font-family="ui-monospace, SFMono-Regular, monospace">runguard</text>
<text x="260" y="69" fill="#f4f1ea" font-size="14" font-family="ui-monospace, SFMono-Regular, monospace">5/5</text>
<text x="316" y="69" fill="#f4f1ea" font-size="14" font-family="ui-monospace, SFMono-Regular, monospace">5/5</text>
<text x="380" y="69" fill="#9a9aa8" font-size="13" font-family="ui-monospace, SFMono-Regular, monospace">102k</text>
<text x="452" y="69" fill="#e4c078" font-size="14" font-family="ui-monospace, SFMono-Regular, monospace">91</text>
<text x="508" y="69" fill="#9a9aa8" font-size="11" font-family="ui-monospace, SFMono-Regular, monospace">Go · TS · C# · Python</text>
<rect x="24" y="88" width="832" height="36" rx="10" fill="#101218" stroke="rgba(232,228,214,0.08)"/>
<g id="stream_logo_stellami" class="stream_logo" data-stream="stellami" transform="translate(34.0,97.0) scale(0.9000)" opacity="1.0"><g transform="translate(-0 -0) scale(0.0390625 0.0390625)"><defs>
    <linearGradient id="stream_logo_stellami-gold" x1="0%" y1="0%" x2="100%" y2="100%">
      <stop offset="0%" stop-color="#f5e6a8"/>
      <stop offset="45%" stop-color="#e8c57a"/>
      <stop offset="100%" stop-color="#c9a227"/>
    </linearGradient>
    <filter id="stream_logo_stellami-glow" x="-40%" y="-40%" width="180%" height="180%">
      <feGaussianBlur stdDeviation="6" result="b"/>
      <feMerge><feMergeNode in="b"/><feMergeNode in="SourceGraphic"/></feMerge>
    </filter>
  </defs>
  <g fill="none" stroke="url(#stream_logo_stellami-gold)" stroke-width="2.2" opacity=".55">
    <circle cx="256" cy="256" r="168"/>
    <circle cx="256" cy="256" r="132"/>
    <circle cx="256" cy="256" r="96"/>
  </g>
  <g stroke="url(#stream_logo_stellami-gold)" stroke-width="1.4" opacity=".35">
    <line x1="256" y1="88" x2="256" y2="424"/>
    <line x1="88" y1="256" x2="424" y2="256"/>
  </g>
  <g filter="url(#stream_logo_stellami-glow)" stroke="url(#stream_logo_stellami-gold)" stroke-width="10" stroke-linecap="round" stroke-linejoin="round">
    <path d="M256 108 L286 226 L404 256 L286 286 L256 404 L226 286 L108 256 L226 226 Z" fill="none"/>
    <path d="M256 148 L272 236 L360 256 L272 276 L256 364 L240 276 L152 256 L240 236 Z" fill="url(#stream_logo_stellami-gold)" opacity=".92"/>
  </g>
  <circle cx="256" cy="256" r="18" fill="#fff8e8" opacity=".95"/></g></g><use class="stream_logo" data-stream="stellami" href="#stream_logo_stellami" x="34.0" y="97.0" width="18" height="18" opacity="0"/>
<text x="60" y="111" fill="#f4f1ea" font-size="13" font-family="ui-monospace, SFMono-Regular, monospace">stellami</text>
<text x="260" y="111" fill="#f4f1ea" font-size="14" font-family="ui-monospace, SFMono-Regular, monospace">4/5</text>
<text x="316" y="111" fill="#f4f1ea" font-size="14" font-family="ui-monospace, SFMono-Regular, monospace">5/5</text>
<text x="380" y="111" fill="#9a9aa8" font-size="13" font-family="ui-monospace, SFMono-Regular, monospace">166k</text>
<text x="452" y="111" fill="#e4c078" font-size="14" font-family="ui-monospace, SFMono-Regular, monospace">111</text>
<text x="508" y="111" fill="#9a9aa8" font-size="11" font-family="ui-monospace, SFMono-Regular, monospace">Python · JS · Sh · PS</text>
<rect x="24" y="130" width="832" height="36" rx="10" fill="#101218" stroke="rgba(232,228,214,0.08)"/>
<g id="stream_logo_mf2fv" class="stream_logo" data-stream="mf2fv" transform="translate(34.0,139.0) scale(0.9000)" opacity="1.0"><!-- Two phones + link — violet party/social mark (vector; no nested raster) -->
  <rect width="20" height="20" rx="4" fill="#1e1b4b"/>
  <rect x="3.2" y="4.2" width="5.6" height="11.6" rx="1.2" fill="none" stroke="#a78bfa" stroke-width="1.2"/>
  <rect x="11.2" y="4.2" width="5.6" height="11.6" rx="1.2" fill="none" stroke="#c4b5fd" stroke-width="1.2"/>
  <path d="M8.8 10 H11.2" stroke="#ddd6fe" stroke-width="1.2" stroke-linecap="round"/>
  <circle cx="6" cy="13.6" r="0.7" fill="#a78bfa"/>
  <circle cx="14" cy="13.6" r="0.7" fill="#c4b5fd"/></g><use class="stream_logo" data-stream="mf2fv" href="#stream_logo_mf2fv" x="34.0" y="139.0" width="18" height="18" opacity="0"/>
<text x="60" y="153" fill="#f4f1ea" font-size="13" font-family="ui-monospace, SFMono-Regular, monospace">MF2FV</text>
<text x="260" y="153" fill="#f4f1ea" font-size="14" font-family="ui-monospace, SFMono-Regular, monospace">3/5</text>
<text x="316" y="153" fill="#f4f1ea" font-size="14" font-family="ui-monospace, SFMono-Regular, monospace">3/5</text>
<text x="380" y="153" fill="#9a9aa8" font-size="13" font-family="ui-monospace, SFMono-Regular, monospace">32.0k</text>
<text x="452" y="153" fill="#e4c078" font-size="14" font-family="ui-monospace, SFMono-Regular, monospace">86</text>
<text x="508" y="153" fill="#9a9aa8" font-size="11" font-family="ui-monospace, SFMono-Regular, monospace">JS · Sh · HTML · CSS</text>
<rect x="24" y="172" width="832" height="36" rx="10" fill="#101218" stroke="rgba(232,228,214,0.08)"/>
<g id="stream_logo_aat" class="stream_logo" data-stream="aat" opacity="1.0"><rect x="34.0" y="181.0" width="18" height="18" rx="4" fill="#c47b4a"/><text x="43.0" y="194.2" text-anchor="middle" fill="#0d1117" font-size="10" font-family="ui-sans-serif, system-ui, sans-serif" font-weight="700">A</text></g>
<text x="60" y="195" fill="#f4f1ea" font-size="13" font-family="ui-monospace, SFMono-Regular, monospace">AAT</text>
<text x="260" y="195" fill="#f4f1ea" font-size="14" font-family="ui-monospace, SFMono-Regular, monospace">3/5</text>
<text x="316" y="195" fill="#f4f1ea" font-size="14" font-family="ui-monospace, SFMono-Regular, monospace">3/5</text>
<text x="380" y="195" fill="#9a9aa8" font-size="13" font-family="ui-monospace, SFMono-Regular, monospace">8k</text>
<text x="452" y="195" fill="#e4c078" font-size="14" font-family="ui-monospace, SFMono-Regular, monospace">86</text>
<text x="508" y="195" fill="#9a9aa8" font-size="11" font-family="ui-monospace, SFMono-Regular, monospace">Kotlin · JS · CSS · HTML</text>
<rect x="24" y="214" width="832" height="36" rx="10" fill="#101218" stroke="rgba(232,228,214,0.08)"/>
<g id="stream_logo_esp-lab-jack" class="stream_logo" data-stream="esp-lab-jack" transform="translate(34.0,223.0) scale(0.9000)" opacity="1.0"><!-- MCU / chip mark - amber-orange -->
  <rect width="20" height="20" rx="4" fill="#3d2314"/>
  <rect x="5" y="5" width="10" height="10" rx="1.5" fill="#ffa657"/>
  <rect x="7" y="7" width="6" height="6" rx="0.8" fill="#1c1210"/>
  <!-- pins -->
  <rect x="2.2" y="7" width="2.2" height="1.2" rx="0.3" fill="#ffd4a8"/>
  <rect x="2.2" y="11.8" width="2.2" height="1.2" rx="0.3" fill="#ffd4a8"/>
  <rect x="15.6" y="7" width="2.2" height="1.2" rx="0.3" fill="#ffd4a8"/>
  <rect x="15.6" y="11.8" width="2.2" height="1.2" rx="0.3" fill="#ffd4a8"/>
  <rect x="7" y="2.2" width="1.2" height="2.2" rx="0.3" fill="#ffd4a8"/>
  <rect x="11.8" y="2.2" width="1.2" height="2.2" rx="0.3" fill="#ffd4a8"/>
  <rect x="7" y="15.6" width="1.2" height="2.2" rx="0.3" fill="#ffd4a8"/>
  <rect x="11.8" y="15.6" width="1.2" height="2.2" rx="0.3" fill="#ffd4a8"/></g><use class="stream_logo" data-stream="esp-lab-jack" href="#stream_logo_esp-lab-jack" x="34.0" y="223.0" width="18" height="18" opacity="0"/>
<text x="60" y="237" fill="#f4f1ea" font-size="13" font-family="ui-monospace, SFMono-Regular, monospace">esp-lab-jack</text>
<text x="260" y="237" fill="#f4f1ea" font-size="14" font-family="ui-monospace, SFMono-Regular, monospace">3/5</text>
<text x="316" y="237" fill="#f4f1ea" font-size="14" font-family="ui-monospace, SFMono-Regular, monospace">2/5</text>
<text x="380" y="237" fill="#9a9aa8" font-size="13" font-family="ui-monospace, SFMono-Regular, monospace">983</text>
<text x="452" y="237" fill="#e4c078" font-size="14" font-family="ui-monospace, SFMono-Regular, monospace">57</text>
<text x="508" y="237" fill="#9a9aa8" font-size="11" font-family="ui-monospace, SFMono-Regular, monospace">C++ · C · Sh · YAML</text>
<rect x="24" y="256" width="832" height="36" rx="10" fill="#101218" stroke="rgba(232,228,214,0.08)"/>
<g id="stream_logo_mos" class="stream_logo" data-stream="mos" opacity="1.0"><rect x="34.0" y="265.0" width="18" height="18" rx="4" fill="#ff6b5e"/><text x="43.0" y="278.2" text-anchor="middle" fill="#0d1117" font-size="10" font-family="ui-sans-serif, system-ui, sans-serif" font-weight="700">M</text></g>
<text x="60" y="279" fill="#f4f1ea" font-size="13" font-family="ui-monospace, SFMono-Regular, monospace">MOS</text>
<text x="260" y="279" fill="#f4f1ea" font-size="14" font-family="ui-monospace, SFMono-Regular, monospace">3/5</text>
<text x="316" y="279" fill="#f4f1ea" font-size="14" font-family="ui-monospace, SFMono-Regular, monospace">5/5</text>
<text x="380" y="279" fill="#9a9aa8" font-size="13" font-family="ui-monospace, SFMono-Regular, monospace">160</text>
<text x="452" y="279" fill="#e4c078" font-size="14" font-family="ui-monospace, SFMono-Regular, monospace">143</text>
<text x="508" y="279" fill="#9a9aa8" font-size="11" font-family="ui-monospace, SFMono-Regular, monospace">Python · TOML</text>
<rect x="24" y="298" width="832" height="36" rx="10" fill="#101218" stroke="rgba(232,228,214,0.08)"/>
<g id="stream_logo_cc-ar" class="stream_logo" data-stream="cc-ar" opacity="1.0"><rect x="34.0" y="307.0" width="18" height="18" rx="4" fill="#58a6ff"/><text x="43.0" y="320.2" text-anchor="middle" fill="#0d1117" font-size="10" font-family="ui-sans-serif, system-ui, sans-serif" font-weight="700">C</text></g>
<text x="60" y="321" fill="#f4f1ea" font-size="13" font-family="ui-monospace, SFMono-Regular, monospace">CC-AR</text>
<text x="260" y="321" fill="#f4f1ea" font-size="14" font-family="ui-monospace, SFMono-Regular, monospace">3/5</text>
<text x="316" y="321" fill="#f4f1ea" font-size="14" font-family="ui-monospace, SFMono-Regular, monospace">3/5</text>
<text x="380" y="321" fill="#9a9aa8" font-size="13" font-family="ui-monospace, SFMono-Regular, monospace">0</text>
<text x="452" y="321" fill="#e4c078" font-size="14" font-family="ui-monospace, SFMono-Regular, monospace">86</text>
<text x="508" y="321" fill="#9a9aa8" font-size="11" font-family="ui-monospace, SFMono-Regular, monospace">—</text>
<rect x="24" y="340" width="832" height="36" rx="10" fill="#101218" stroke="rgba(232,228,214,0.08)"/>
<g id="stream_logo_ccdpc" class="stream_logo" data-stream="ccdpc" transform="translate(34.0,349.0) scale(0.9000)" opacity="1.0"><g transform="translate(-0 -0) scale(0.3125 0.3125)"><rect width="64" height="64" rx="14" fill="#f0e6a8"/>
  <rect x="10" y="14" width="44" height="30" rx="6" fill="#1a0e0a"/>
  <circle cx="24" cy="28" r="4" fill="#fff6c8"/>
  <circle cx="40" cy="28" r="4" fill="#fff6c8"/>
  <rect x="22" y="38" width="20" height="3" rx="1.5" fill="#5bc4a8"/>
  <rect x="18" y="48" width="28" height="6" rx="2" fill="#d4c478"/></g></g><use class="stream_logo" data-stream="ccdpc" href="#stream_logo_ccdpc" x="34.0" y="349.0" width="18" height="18" opacity="0"/>
<text x="60" y="363" fill="#f4f1ea" font-size="13" font-family="ui-monospace, SFMono-Regular, monospace">H-AI</text>
<text x="260" y="363" fill="#f4f1ea" font-size="14" font-family="ui-monospace, SFMono-Regular, monospace">2/5</text>
<text x="316" y="363" fill="#f4f1ea" font-size="14" font-family="ui-monospace, SFMono-Regular, monospace">2/5</text>
<text x="380" y="363" fill="#9a9aa8" font-size="13" font-family="ui-monospace, SFMono-Regular, monospace">14.6k</text>
<text x="452" y="363" fill="#e4c078" font-size="14" font-family="ui-monospace, SFMono-Regular, monospace">80</text>
<text x="508" y="363" fill="#9a9aa8" font-size="11" font-family="ui-monospace, SFMono-Regular, monospace">JS · Sh · HTML · CSS</text>
<rect x="24" y="382" width="832" height="36" rx="10" fill="#101218" stroke="rgba(232,228,214,0.08)"/>
<g id="stream_logo_stellami-marketing" class="stream_logo" data-stream="stellami-marketing" transform="translate(34.0,391.0) scale(0.9000)" opacity="1.0"><!-- Rose megaphone + small gold spark - marketing sibling of Stellami -->
  <defs>
    <linearGradient id="stream_logo_stellami-marketing-smkt-gold" x1="0%" y1="0%" x2="100%" y2="100%">
      <stop offset="0%" stop-color="#f5e6a8"/>
      <stop offset="100%" stop-color="#c9a227"/>
    </linearGradient>
  </defs>
  <rect width="20" height="20" rx="4" fill="#831843"/>
  <path fill="#f778ba" d="M4.2 8.2h3.2l5.2-2.6v9.2l-5.2-2.6H4.2z"/>
  <path fill="#fda4d0" d="M12.6 6.2l2.6-1.4v10.8l-2.6-1.4z"/>
  <path fill="url(#stream_logo_stellami-marketing-smkt-gold)" d="M15.2 3.4 L15.7 4.7 L17 5.2 L15.7 5.7 L15.2 7 L14.7 5.7 L13.4 5.2 L14.7 4.7 Z"/></g><use class="stream_logo" data-stream="stellami-marketing" href="#stream_logo_stellami-marketing" x="34.0" y="391.0" width="18" height="18" opacity="0"/>
<text x="60" y="405" fill="#f4f1ea" font-size="13" font-family="ui-monospace, SFMono-Regular, monospace">stellami-marketing</text>
<text x="260" y="405" fill="#f4f1ea" font-size="14" font-family="ui-monospace, SFMono-Regular, monospace">2/5</text>
<text x="316" y="405" fill="#f4f1ea" font-size="14" font-family="ui-monospace, SFMono-Regular, monospace">2/5</text>
<text x="380" y="405" fill="#9a9aa8" font-size="13" font-family="ui-monospace, SFMono-Regular, monospace">7k</text>
<text x="452" y="405" fill="#e4c078" font-size="14" font-family="ui-monospace, SFMono-Regular, monospace">80</text>
<text x="508" y="405" fill="#9a9aa8" font-size="11" font-family="ui-monospace, SFMono-Regular, monospace">Python · HTML · CSS</text>
<rect x="24" y="424" width="832" height="36" rx="10" fill="#101218" stroke="rgba(232,228,214,0.08)"/>
<g id="stream_logo_ppcv" class="stream_logo" data-stream="ppcv" transform="translate(34.0,433.0) scale(0.9000)" opacity="1.0"><rect width="20" height="20" rx="4" fill="#1a1714"/>
  <circle cx="10" cy="10" r="6.2" fill="none" stroke="#c9b896" stroke-width="1.6"/>
  <path fill="#c9b896" d="M10 5.4 L11.1 8.6 L14.5 8.8 L11.9 11 L12.7 14.4 L10 12.7 L7.3 14.4 L8.1 11 L5.5 8.8 L8.9 8.6 Z"/></g><use class="stream_logo" data-stream="ppcv" href="#stream_logo_ppcv" x="34.0" y="433.0" width="18" height="18" opacity="0"/>
<text x="60" y="447" fill="#f4f1ea" font-size="13" font-family="ui-monospace, SFMono-Regular, monospace">PPCV</text>
<text x="260" y="447" fill="#f4f1ea" font-size="14" font-family="ui-monospace, SFMono-Regular, monospace">2/5</text>
<text x="316" y="447" fill="#f4f1ea" font-size="14" font-family="ui-monospace, SFMono-Regular, monospace">2/5</text>
<text x="380" y="447" fill="#9a9aa8" font-size="13" font-family="ui-monospace, SFMono-Regular, monospace">7k</text>
<text x="452" y="447" fill="#e4c078" font-size="14" font-family="ui-monospace, SFMono-Regular, monospace">80</text>
<text x="508" y="447" fill="#9a9aa8" font-size="11" font-family="ui-monospace, SFMono-Regular, monospace">JS · Sh · CSS · HTML</text>
<rect x="24" y="466" width="832" height="36" rx="10" fill="#101218" stroke="rgba(232,228,214,0.08)"/>
<g id="stream_logo_easm" class="stream_logo" data-stream="easm" transform="translate(34.0,475.0) scale(0.9000)" opacity="1.0"><!-- Radar / scan eye - cyan -->
  <rect width="20" height="20" rx="4" fill="#083344"/>
  <circle cx="10" cy="10" r="6.5" fill="none" stroke="#22d3ee" stroke-width="1.2"/>
  <circle cx="10" cy="10" r="4" fill="none" stroke="#67e8f9" stroke-width="1"/>
  <circle cx="10" cy="10" r="1.6" fill="#22d3ee"/>
  <path d="M10 2.8 V5.2 M10 14.8 V17.2 M2.8 10 H5.2 M14.8 10 H17.2" stroke="#a5f3fc" stroke-width="1.1" stroke-linecap="round"/></g><use class="stream_logo" data-stream="easm" href="#stream_logo_easm" x="34.0" y="475.0" width="18" height="18" opacity="0"/>
<text x="60" y="489" fill="#f4f1ea" font-size="13" font-family="ui-monospace, SFMono-Regular, monospace">EASM</text>
<text x="260" y="489" fill="#f4f1ea" font-size="14" font-family="ui-monospace, SFMono-Regular, monospace">2/5</text>
<text x="316" y="489" fill="#f4f1ea" font-size="14" font-family="ui-monospace, SFMono-Regular, monospace">2/5</text>
<text x="380" y="489" fill="#9a9aa8" font-size="13" font-family="ui-monospace, SFMono-Regular, monospace">6k</text>
<text x="452" y="489" fill="#e4c078" font-size="14" font-family="ui-monospace, SFMono-Regular, monospace">80</text>
<text x="508" y="489" fill="#9a9aa8" font-size="11" font-family="ui-monospace, SFMono-Regular, monospace">Python · Sh · HTML · YAML</text>
<rect x="24" y="508" width="832" height="36" rx="10" fill="#101218" stroke="rgba(232,228,214,0.08)"/>
<g id="stream_logo_peri" class="stream_logo" data-stream="peri" transform="translate(34.0,517.0) scale(0.9000)" opacity="1.0"><!-- Candlestick chart - amber (stable distinct hue) -->
  <rect width="20" height="20" rx="4" fill="#422006"/>
  <!-- wick + body down -->
  <rect x="4.2" y="4" width="1.2" height="11" rx="0.4" fill="#fcd34d"/>
  <rect x="3.2" y="7" width="3.2" height="5" rx="0.5" fill="#fbbf24"/>
  <!-- wick + body up -->
  <rect x="9.4" y="3.5" width="1.2" height="12" rx="0.4" fill="#fde68a"/>
  <rect x="8.4" y="6" width="3.2" height="6.5" rx="0.5" fill="#f59e0b"/>
  <!-- wick + body -->
  <rect x="14.6" y="5" width="1.2" height="10" rx="0.4" fill="#fcd34d"/>
  <rect x="13.6" y="8" width="3.2" height="4.5" rx="0.5" fill="#fbbf24"/></g><use class="stream_logo" data-stream="peri" href="#stream_logo_peri" x="34.0" y="517.0" width="18" height="18" opacity="0"/>
<text x="60" y="531" fill="#f4f1ea" font-size="13" font-family="ui-monospace, SFMono-Regular, monospace">PeriFX</text>
<text x="260" y="531" fill="#f4f1ea" font-size="14" font-family="ui-monospace, SFMono-Regular, monospace">2/5</text>
<text x="316" y="531" fill="#f4f1ea" font-size="14" font-family="ui-monospace, SFMono-Regular, monospace">2/5</text>
<text x="380" y="531" fill="#9a9aa8" font-size="13" font-family="ui-monospace, SFMono-Regular, monospace">4k</text>
<text x="452" y="531" fill="#e4c078" font-size="14" font-family="ui-monospace, SFMono-Regular, monospace">80</text>
<text x="508" y="531" fill="#9a9aa8" font-size="11" font-family="ui-monospace, SFMono-Regular, monospace">Python · Sh · JS · HTML</text>
<rect x="24" y="550" width="832" height="36" rx="10" fill="#101218" stroke="rgba(232,228,214,0.08)"/>
<g id="stream_logo_rt" class="stream_logo" data-stream="rt" opacity="1.0"><rect x="34.0" y="559.0" width="18" height="18" rx="4" fill="#d29922"/><text x="43.0" y="572.2" text-anchor="middle" fill="#0d1117" font-size="10" font-family="ui-sans-serif, system-ui, sans-serif" font-weight="700">R</text></g>
<text x="60" y="573" fill="#f4f1ea" font-size="13" font-family="ui-monospace, SFMono-Regular, monospace">R&amp;T</text>
<text x="260" y="573" fill="#f4f1ea" font-size="14" font-family="ui-monospace, SFMono-Regular, monospace">2/5</text>
<text x="316" y="573" fill="#f4f1ea" font-size="14" font-family="ui-monospace, SFMono-Regular, monospace">2/5</text>
<text x="380" y="573" fill="#9a9aa8" font-size="13" font-family="ui-monospace, SFMono-Regular, monospace">0</text>
<text x="452" y="573" fill="#e4c078" font-size="14" font-family="ui-monospace, SFMono-Regular, monospace">80</text>
<text x="508" y="573" fill="#9a9aa8" font-size="11" font-family="ui-monospace, SFMono-Regular, monospace">—</text>
<rect x="24" y="592" width="832" height="36" rx="10" fill="#101218" stroke="rgba(232,228,214,0.08)"/>
<g id="stream_logo_wash" class="stream_logo" data-stream="wash" transform="translate(34.0,601.0) scale(0.9000)" opacity="1.0"><!-- Water drop - salmon/red (keep wash identity) -->
  <rect width="20" height="20" rx="4" fill="#3f1513"/>
  <path fill="#ff7b72" d="M10 2.8 C10 2.8 15.2 9.2 15.2 12.4 A5.2 5.2 0 0 1 4.8 12.4 C4.8 9.2 10 2.8 10 2.8 Z"/>
  <ellipse cx="8.2" cy="11.2" rx="1.4" ry="2" fill="#ffd0cc" opacity=".55"/></g><use class="stream_logo" data-stream="wash" href="#stream_logo_wash" x="34.0" y="601.0" width="18" height="18" opacity="0"/>
<text x="60" y="615" fill="#f4f1ea" font-size="13" font-family="ui-monospace, SFMono-Regular, monospace">WASH</text>
<text x="260" y="615" fill="#f4f1ea" font-size="14" font-family="ui-monospace, SFMono-Regular, monospace">1/5</text>
<text x="316" y="615" fill="#f4f1ea" font-size="14" font-family="ui-monospace, SFMono-Regular, monospace">2/5</text>
<text x="380" y="615" fill="#9a9aa8" font-size="13" font-family="ui-monospace, SFMono-Regular, monospace">1k</text>
<text x="452" y="615" fill="#e4c078" font-size="14" font-family="ui-monospace, SFMono-Regular, monospace">133</text>
<text x="508" y="615" fill="#9a9aa8" font-size="11" font-family="ui-monospace, SFMono-Regular, monospace">Python · JS · Sh · HTML</text>
<text x="28" y="646" fill="#6f7380" font-size="9" font-family="ui-sans-serif, system-ui, sans-serif">order: complexity → LOC → utility · CXP/UTIL from roadmap.json · LOC = non-blank source lines in local clones · index = round(100 × utility ÷ (complexity + 0.5)) · chapters on pulse.svg only</text>
</svg>
